<svg xmlns="http://www.w3.org/2000/svg" width="200" height="200" viewBox="0 0 200 200">
  <!-- Bitrix24-style chat wallpaper — sıx ikon naxışı, 200x200 tile -->
  <g fill="none" stroke="#2a5f7a" stroke-width="1.5" stroke-linecap="round" stroke-linejoin="round">

    <!-- Row 1 (y≈8) — 5 ikon -->
    <g transform="translate(5,5) rotate(-8,12,12) scale(0.85)">
      <rect x="2" y="4" width="20" height="16" rx="2"/><path d="M22 7l-10 7L2 7"/>
    </g>
    <g transform="translate(45,10) rotate(6,12,12) scale(0.85)">
      <polygon points="12,2 15.09,8.26 22,9.27 17,14.14 18.18,21.02 12,17.77 5.82,21.02 7,14.14 2,9.27 8.91,8.26"/>
    </g>
    <g transform="translate(85,4) rotate(-5,12,12) scale(0.85)">
      <path d="M23 19a2 2 0 0 1-2 2H3a2 2 0 0 1-2-2V8a2 2 0 0 1 2-2h4l2-3h6l2 3h4a2 2 0 0 1 2 2z"/>
      <circle cx="12" cy="13" r="4"/>
    </g>
    <g transform="translate(130,8) rotate(10,12,12) scale(0.85)">
      <path d="M18 8A6 6 0 0 0 6 8c0 7-3 9-3 9h18s-3-2-3-9"/>
      <path d="M13.73 21a2 2 0 0 1-3.46 0"/>
    </g>
    <g transform="translate(170,6) rotate(-10,12,12) scale(0.85)">
      <rect x="3" y="11" width="18" height="11" rx="2"/>
      <path d="M7 11V7a5 5 0 0 1 10 0v4"/>
    </g>

    <!-- Row 2 (y≈48) — 5 ikon (offset) -->
    <g transform="translate(22,45) rotate(8,12,12) scale(0.85)">
      <circle cx="12" cy="12" r="10"/><polyline points="12 6 12 12 16 14"/>
    </g>
    <g transform="translate(65,50) rotate(-12,12,12) scale(0.85)">
      <path d="M20.84 4.61a5.5 5.5 0 0 0-7.78 0L12 5.67l-1.06-1.06a5.5 5.5 0 0 0-7.78 7.78l1.06 1.06L12 21.23l7.78-7.78 1.06-1.06a5.5 5.5 0 0 0 0-7.78z"/>
    </g>
    <g transform="translate(108,46) rotate(5,12,12) scale(0.85)">
      <path d="M20 21v-2a4 4 0 0 0-4-4H8a4 4 0 0 0-4 4v2"/>
      <circle cx="12" cy="7" r="4"/>
    </g>
    <g transform="translate(150,52) rotate(-7,12,12) scale(0.85)">
      <path d="M17 3a2.83 2.83 0 0 1 4 4L7.5 20.5 2 22l1.5-5.5z"/>
    </g>

    <!-- Row 3 (y≈88) — 5 ikon -->
    <g transform="translate(5,85) rotate(-6,12,12) scale(0.85)">
      <path d="M21 15a2 2 0 0 1-2 2H7l-4 4V5a2 2 0 0 1 2-2h14a2 2 0 0 1 2 2z"/>
    </g>
    <g transform="translate(45,90) rotate(12,12,12) scale(0.85)">
      <path d="M19 21l-7-5-7 5V5a2 2 0 0 1 2-2h10a2 2 0 0 1 2 2z"/>
    </g>
    <g transform="translate(88,84) rotate(-9,12,12) scale(0.85)">
      <path d="M14 2H6a2 2 0 0 0-2 2v16a2 2 0 0 0 2 2h12a2 2 0 0 0 2-2V8z"/>
      <polyline points="14 2 14 8 20 8"/>
    </g>
    <g transform="translate(130,88) rotate(7,12,12) scale(0.85)">
      <rect x="3" y="4" width="18" height="18" rx="2"/>
      <line x1="16" y1="2" x2="16" y2="6"/>
      <line x1="8" y1="2" x2="8" y2="6"/>
      <line x1="3" y1="10" x2="21" y2="10"/>
    </g>
    <g transform="translate(172,86) rotate(-11,12,12) scale(0.85)">
      <path d="M22 16.92v3a2 2 0 0 1-2.18 2 19.79 19.79 0 0 1-8.63-3.07 19.5 19.5 0 0 1-6-6 19.79 19.79 0 0 1-3.07-8.67A2 2 0 0 1 4.11 2h3a2 2 0 0 1 2 1.72c.13.88.36 1.75.7 2.58a2 2 0 0 1-.45 2.11L8.09 9.91a16 16 0 0 0 6 6l1.27-1.27a2 2 0 0 1 2.11-.45c.83.34 1.7.57 2.58.7A2 2 0 0 1 22 16.92z"/>
    </g>

    <!-- Row 4 (y≈128) — 5 ikon (offset) -->
    <g transform="translate(22,125) rotate(9,12,12) scale(0.85)">
      <polygon points="12,2 15.09,8.26 22,9.27 17,14.14 18.18,21.02 12,17.77 5.82,21.02 7,14.14 2,9.27 8.91,8.26"/>
    </g>
    <g transform="translate(65,130) rotate(-5,12,12) scale(0.85)">
      <rect x="2" y="4" width="20" height="16" rx="2"/><path d="M22 7l-10 7L2 7"/>
    </g>
    <g transform="translate(108,126) rotate(11,12,12) scale(0.85)">
      <path d="M22 11.08V12a10 10 0 1 1-5.93-9.14"/>
      <polyline points="22 4 12 14.01 9 11.01"/>
    </g>
    <g transform="translate(150,132) rotate(-8,12,12) scale(0.85)">
      <path d="M23 19a2 2 0 0 1-2 2H3a2 2 0 0 1-2-2V8a2 2 0 0 1 2-2h4l2-3h6l2 3h4a2 2 0 0 1 2 2z"/>
      <circle cx="12" cy="13" r="4"/>
    </g>

    <!-- Row 5 (y≈168) — 5 ikon -->
    <g transform="translate(5,165) rotate(7,12,12) scale(0.85)">
      <path d="M18 8A6 6 0 0 0 6 8c0 7-3 9-3 9h18s-3-2-3-9"/>
      <path d="M13.73 21a2 2 0 0 1-3.46 0"/>
    </g>
    <g transform="translate(45,170) rotate(-10,12,12) scale(0.85)">
      <circle cx="12" cy="12" r="10"/><polyline points="12 6 12 12 16 14"/>
    </g>
    <g transform="translate(88,164) rotate(6,12,12) scale(0.85)">
      <path d="M20 21v-2a4 4 0 0 0-4-4H8a4 4 0 0 0-4 4v2"/>
      <circle cx="12" cy="7" r="4"/>
    </g>
    <g transform="translate(130,168) rotate(-13,12,12) scale(0.85)">
      <path d="M20.84 4.61a5.5 5.5 0 0 0-7.78 0L12 5.67l-1.06-1.06a5.5 5.5 0 0 0-7.78 7.78l1.06 1.06L12 21.23l7.78-7.78 1.06-1.06a5.5 5.5 0 0 0 0-7.78z"/>
    </g>
    <g transform="translate(172,166) rotate(4,12,12) scale(0.85)">
      <path d="M17 3a2.83 2.83 0 0 1 4 4L7.5 20.5 2 22l1.5-5.5z"/>
    </g>

  </g>
</svg>
